<mxfile host="Electron" agent="Mozilla/5.0 (Macintosh; Intel Mac OS X 10_15_7) AppleWebKit/537.36 (KHTML, like Gecko) draw.io/28.1.2 Chrome/138.0.7204.243 Electron/37.4.0 Safari/537.36" version="28.1.2">
  <diagram name="Page-1" id="-heKl9F8ncZYmAUXaTCV">
    <mxGraphModel dx="1577" dy="1007" grid="1" gridSize="10" guides="1" tooltips="1" connect="1" arrows="1" fold="1" page="1" pageScale="1" pageWidth="827" pageHeight="1169" math="0" shadow="0">
      <root>
        <mxCell id="0" />
        <mxCell id="1" parent="0" />
        <mxCell id="y_U1sLLxYdFH5VkJYSiX-1" value="CSO" style="shape=umlActor;verticalLabelPosition=bottom;verticalAlign=top;html=1;outlineConnect=0;" parent="1" vertex="1">
          <mxGeometry x="20" y="60" width="30" height="60" as="geometry" />
        </mxCell>
        <mxCell id="y_U1sLLxYdFH5VkJYSiX-7" value="" style="html=1;points=[[0,0,0,0,5],[0,1,0,0,-5],[1,0,0,0,5],[1,1,0,0,-5]];perimeter=orthogonalPerimeter;outlineConnect=0;targetShapes=umlLifeline;portConstraint=eastwest;newEdgeStyle={&quot;curved&quot;:0,&quot;rounded&quot;:0};" parent="1" vertex="1">
          <mxGeometry x="30" y="150" width="10" height="900" as="geometry" />
        </mxCell>
        <mxCell id="y_U1sLLxYdFH5VkJYSiX-8" value="&lt;u&gt;:requestFromOpen&lt;/u&gt;" style="html=1;whiteSpace=wrap;" parent="1" vertex="1">
          <mxGeometry x="80" y="80" width="110" height="40" as="geometry" />
        </mxCell>
        <mxCell id="y_U1sLLxYdFH5VkJYSiX-9" value="" style="html=1;points=[[0,0,0,0,5],[0,1,0,0,-5],[1,0,0,0,5],[1,1,0,0,-5]];perimeter=orthogonalPerimeter;outlineConnect=0;targetShapes=umlLifeline;portConstraint=eastwest;newEdgeStyle={&quot;curved&quot;:0,&quot;rounded&quot;:0};" parent="1" vertex="1">
          <mxGeometry x="130" y="177" width="10" height="80" as="geometry" />
        </mxCell>
        <mxCell id="y_U1sLLxYdFH5VkJYSiX-11" value="&lt;u&gt;:requestCtrl&lt;/u&gt;" style="html=1;whiteSpace=wrap;" parent="1" vertex="1">
          <mxGeometry x="210" y="130" width="110" height="40" as="geometry" />
        </mxCell>
        <mxCell id="y_U1sLLxYdFH5VkJYSiX-12" value="" style="html=1;points=[[0,0,0,0,5],[0,1,0,0,-5],[1,0,0,0,5],[1,1,0,0,-5]];perimeter=orthogonalPerimeter;outlineConnect=0;targetShapes=umlLifeline;portConstraint=eastwest;newEdgeStyle={&quot;curved&quot;:0,&quot;rounded&quot;:0};" parent="1" vertex="1">
          <mxGeometry x="250" y="170" width="10" height="60" as="geometry" />
        </mxCell>
        <mxCell id="y_U1sLLxYdFH5VkJYSiX-13" value="create" style="text;align=center;fontStyle=1;verticalAlign=middle;spacingLeft=3;spacingRight=3;strokeColor=none;rotatable=0;points=[[0,0.5],[1,0.5]];portConstraint=eastwest;html=1;" parent="1" vertex="1">
          <mxGeometry x="270" y="190" width="80" height="26" as="geometry" />
        </mxCell>
        <mxCell id="y_U1sLLxYdFH5VkJYSiX-14" value="&lt;u&gt;:requestForm&lt;/u&gt;" style="html=1;whiteSpace=wrap;" parent="1" vertex="1">
          <mxGeometry x="360" y="190" width="110" height="40" as="geometry" />
        </mxCell>
        <mxCell id="y_U1sLLxYdFH5VkJYSiX-16" value="" style="html=1;points=[[0,0,0,0,5],[0,1,0,0,-5],[1,0,0,0,5],[1,1,0,0,-5]];perimeter=orthogonalPerimeter;outlineConnect=0;targetShapes=umlLifeline;portConstraint=eastwest;newEdgeStyle={&quot;curved&quot;:0,&quot;rounded&quot;:0};" parent="1" vertex="1">
          <mxGeometry x="404" y="280" width="10" height="30" as="geometry" />
        </mxCell>
        <mxCell id="y_U1sLLxYdFH5VkJYSiX-17" value="&lt;u&gt;:clientReport&lt;/u&gt;" style="html=1;whiteSpace=wrap;" parent="1" vertex="1">
          <mxGeometry x="450" y="380" width="110" height="40" as="geometry" />
        </mxCell>
        <mxCell id="y_U1sLLxYdFH5VkJYSiX-20" value="" style="html=1;verticalAlign=bottom;endArrow=block;curved=0;rounded=0;" parent="1" edge="1">
          <mxGeometry width="80" relative="1" as="geometry">
            <mxPoint x="30" y="290" as="sourcePoint" />
            <mxPoint x="400" y="290" as="targetPoint" />
          </mxGeometry>
        </mxCell>
        <mxCell id="y_U1sLLxYdFH5VkJYSiX-21" value="&lt;span style=&quot;color: rgb(255, 255, 255); font-family: Helvetica; font-size: 12px; font-style: normal; font-variant-ligatures: normal; font-variant-caps: normal; font-weight: 700; letter-spacing: normal; orphans: 2; text-align: center; text-indent: 0px; text-transform: none; widows: 2; word-spacing: 0px; -webkit-text-stroke-width: 0px; white-space: nowrap; background-color: rgb(27, 29, 30); text-decoration-thickness: initial; text-decoration-style: initial; text-decoration-color: initial; display: inline !important; float: none;&quot;&gt;fill contain()&lt;/span&gt;" style="text;whiteSpace=wrap;html=1;" parent="1" vertex="1">
          <mxGeometry x="320" y="260" width="70" height="40" as="geometry" />
        </mxCell>
        <mxCell id="y_U1sLLxYdFH5VkJYSiX-22" value="" style="html=1;points=[[0,0,0,0,5],[0,1,0,0,-5],[1,0,0,0,5],[1,1,0,0,-5]];perimeter=orthogonalPerimeter;outlineConnect=0;targetShapes=umlLifeline;portConstraint=eastwest;newEdgeStyle={&quot;curved&quot;:0,&quot;rounded&quot;:0};" parent="1" vertex="1">
          <mxGeometry x="404" y="340" width="10" height="30" as="geometry" />
        </mxCell>
        <mxCell id="y_U1sLLxYdFH5VkJYSiX-23" value="" style="html=1;verticalAlign=bottom;endArrow=block;curved=0;rounded=0;" parent="1" edge="1">
          <mxGeometry width="80" relative="1" as="geometry">
            <mxPoint x="40" y="340" as="sourcePoint" />
            <mxPoint x="410" y="340" as="targetPoint" />
          </mxGeometry>
        </mxCell>
        <mxCell id="y_U1sLLxYdFH5VkJYSiX-24" value="submit()" style="text;whiteSpace=wrap;html=1;" parent="1" vertex="1">
          <mxGeometry x="320" y="310" width="70" height="40" as="geometry" />
        </mxCell>
        <mxCell id="y_U1sLLxYdFH5VkJYSiX-25" value="" style="line;strokeWidth=1;fillColor=none;align=left;verticalAlign=middle;spacingTop=-1;spacingLeft=3;spacingRight=3;rotatable=0;labelPosition=right;points=[];portConstraint=eastwest;strokeColor=inherit;dashed=1;dashPattern=8 8;direction=south;" parent="1" vertex="1">
          <mxGeometry x="405" y="240" width="8" height="35" as="geometry" />
        </mxCell>
        <mxCell id="y_U1sLLxYdFH5VkJYSiX-35" value="" style="line;strokeWidth=1;fillColor=none;align=left;verticalAlign=middle;spacingTop=-1;spacingLeft=3;spacingRight=3;rotatable=0;labelPosition=right;points=[];portConstraint=eastwest;strokeColor=inherit;dashed=1;dashPattern=8 8;direction=west;" parent="1" vertex="1">
          <mxGeometry x="260" y="216" width="100" height="8" as="geometry" />
        </mxCell>
        <mxCell id="y_U1sLLxYdFH5VkJYSiX-36" value="" style="html=1;points=[[0,0,0,0,5],[0,1,0,0,-5],[1,0,0,0,5],[1,1,0,0,-5]];perimeter=orthogonalPerimeter;outlineConnect=0;targetShapes=umlLifeline;portConstraint=eastwest;newEdgeStyle={&quot;curved&quot;:0,&quot;rounded&quot;:0};" parent="1" vertex="1">
          <mxGeometry x="250" y="350" width="10" height="100" as="geometry" />
        </mxCell>
        <mxCell id="y_U1sLLxYdFH5VkJYSiX-37" value="" style="html=1;verticalAlign=bottom;endArrow=block;curved=0;rounded=0;" parent="1" edge="1">
          <mxGeometry width="80" relative="1" as="geometry">
            <mxPoint x="404" y="370" as="sourcePoint" />
            <mxPoint x="254" y="370" as="targetPoint" />
          </mxGeometry>
        </mxCell>
        <mxCell id="y_U1sLLxYdFH5VkJYSiX-38" value="&lt;span style=&quot;color: rgb(255, 255, 255); font-family: Helvetica; font-size: 12px; font-style: normal; font-variant-ligatures: normal; font-variant-caps: normal; font-weight: 700; letter-spacing: normal; orphans: 2; text-align: center; text-indent: 0px; text-transform: none; widows: 2; word-spacing: 0px; -webkit-text-stroke-width: 0px; white-space: nowrap; background-color: rgb(27, 29, 30); text-decoration-thickness: initial; text-decoration-style: initial; text-decoration-color: initial; display: inline !important; float: none;&quot;&gt;submitReport()&lt;/span&gt;" style="text;whiteSpace=wrap;html=1;" parent="1" vertex="1">
          <mxGeometry x="300.5" y="341" width="70" height="40" as="geometry" />
        </mxCell>
        <mxCell id="y_U1sLLxYdFH5VkJYSiX-40" value="" style="line;strokeWidth=1;fillColor=none;align=left;verticalAlign=middle;spacingTop=-1;spacingLeft=3;spacingRight=3;rotatable=0;labelPosition=right;points=[];portConstraint=eastwest;strokeColor=inherit;dashed=1;dashPattern=8 8;direction=west;" parent="1" vertex="1">
          <mxGeometry x="260" y="400" width="190" height="10" as="geometry" />
        </mxCell>
        <mxCell id="y_U1sLLxYdFH5VkJYSiX-41" value="create" style="text;html=1;align=center;verticalAlign=middle;whiteSpace=wrap;rounded=0;" parent="1" vertex="1">
          <mxGeometry x="314" y="380" width="55" height="21" as="geometry" />
        </mxCell>
        <mxCell id="y_U1sLLxYdFH5VkJYSiX-42" value="" style="html=1;verticalAlign=bottom;endArrow=block;curved=0;rounded=0;" parent="1" edge="1">
          <mxGeometry width="80" relative="1" as="geometry">
            <mxPoint x="260" y="440" as="sourcePoint" />
            <mxPoint x="630" y="440" as="targetPoint" />
          </mxGeometry>
        </mxCell>
        <mxCell id="y_U1sLLxYdFH5VkJYSiX-43" value="notifyManger()" style="text;html=1;align=center;verticalAlign=middle;whiteSpace=wrap;rounded=0;" parent="1" vertex="1">
          <mxGeometry x="310" y="420" width="103" height="21" as="geometry" />
        </mxCell>
        <mxCell id="y_U1sLLxYdFH5VkJYSiX-44" value="&lt;u&gt;:reviewCtrl&lt;/u&gt;" style="html=1;whiteSpace=wrap;" parent="1" vertex="1">
          <mxGeometry x="524.5" y="120" width="119" height="40" as="geometry" />
        </mxCell>
        <mxCell id="y_U1sLLxYdFH5VkJYSiX-45" value="" style="line;strokeWidth=1;fillColor=none;align=left;verticalAlign=middle;spacingTop=-1;spacingLeft=3;spacingRight=3;rotatable=0;labelPosition=right;points=[];portConstraint=eastwest;strokeColor=inherit;dashed=1;dashPattern=8 8;direction=south;" parent="1" vertex="1">
          <mxGeometry x="580" y="165" width="8" height="260" as="geometry" />
        </mxCell>
        <mxCell id="y_U1sLLxYdFH5VkJYSiX-48" value="" style="line;strokeWidth=1;fillColor=none;align=left;verticalAlign=middle;spacingTop=-1;spacingLeft=3;spacingRight=3;rotatable=0;labelPosition=right;points=[];portConstraint=eastwest;strokeColor=inherit;dashed=1;dashPattern=8 8;direction=north;" parent="1" vertex="1">
          <mxGeometry x="131" y="123" width="8" height="54" as="geometry" />
        </mxCell>
        <mxCell id="y_U1sLLxYdFH5VkJYSiX-53" value="" style="html=1;verticalAlign=bottom;endArrow=block;curved=0;rounded=0;" parent="1" edge="1">
          <mxGeometry width="80" relative="1" as="geometry">
            <mxPoint x="41" y="177" as="sourcePoint" />
            <mxPoint x="131" y="177" as="targetPoint" />
            <Array as="points">
              <mxPoint x="41" y="177" />
            </Array>
          </mxGeometry>
        </mxCell>
        <mxCell id="y_U1sLLxYdFH5VkJYSiX-54" value="" style="line;strokeWidth=1;fillColor=none;align=left;verticalAlign=middle;spacingTop=-1;spacingLeft=3;spacingRight=3;rotatable=0;labelPosition=right;points=[];portConstraint=eastwest;strokeColor=inherit;dashed=1;dashPattern=8 8;direction=west;" parent="1" vertex="1">
          <mxGeometry x="150" y="200" width="100" height="8" as="geometry" />
        </mxCell>
        <mxCell id="y_U1sLLxYdFH5VkJYSiX-56" value="&lt;p style=&quot;margin:0px;margin-top:4px;margin-left:10px;text-align:left;&quot;&gt;&lt;b style=&quot;background-color: light-dark(#ffffff, var(--ge-dark-color, #121212));&quot;&gt;alt&lt;/b&gt;&lt;/p&gt;" style="html=1;shape=mxgraph.sysml.package;labelX=96.28;html=1;overflow=fill;strokeWidth=1;recursiveResize=0;whiteSpace=wrap;" parent="1" vertex="1">
          <mxGeometry x="550" y="445" width="1380" height="680" as="geometry" />
        </mxCell>
        <mxCell id="y_U1sLLxYdFH5VkJYSiX-70" value="" style="html=1;points=[[0,0,0,0,5],[0,1,0,0,-5],[1,0,0,0,5],[1,1,0,0,-5]];perimeter=orthogonalPerimeter;outlineConnect=0;targetShapes=umlLifeline;portConstraint=eastwest;newEdgeStyle={&quot;curved&quot;:0,&quot;rounded&quot;:0};" parent="y_U1sLLxYdFH5VkJYSiX-56" vertex="1">
          <mxGeometry x="30" y="-25" width="10" height="235" as="geometry" />
        </mxCell>
        <mxCell id="y_U1sLLxYdFH5VkJYSiX-71" value="" style="html=1;verticalAlign=bottom;endArrow=block;curved=0;rounded=0;" parent="y_U1sLLxYdFH5VkJYSiX-56" target="y_U1sLLxYdFH5VkJYSiX-84" edge="1">
          <mxGeometry width="80" relative="1" as="geometry">
            <mxPoint x="40" y="60" as="sourcePoint" />
            <mxPoint x="220" y="60" as="targetPoint" />
            <Array as="points">
              <mxPoint x="170" y="60" />
            </Array>
          </mxGeometry>
        </mxCell>
        <mxCell id="y_U1sLLxYdFH5VkJYSiX-84" value="" style="html=1;points=[[0,0,0,0,5],[0,1,0,0,-5],[1,0,0,0,5],[1,1,0,0,-5]];perimeter=orthogonalPerimeter;outlineConnect=0;targetShapes=umlLifeline;portConstraint=eastwest;newEdgeStyle={&quot;curved&quot;:0,&quot;rounded&quot;:0};" parent="y_U1sLLxYdFH5VkJYSiX-56" vertex="1">
          <mxGeometry x="240" y="40" width="10" height="235" as="geometry" />
        </mxCell>
        <mxCell id="y_U1sLLxYdFH5VkJYSiX-85" value="&lt;u&gt;:addFeedbackFrom&lt;/u&gt;" style="html=1;whiteSpace=wrap;" parent="y_U1sLLxYdFH5VkJYSiX-56" vertex="1">
          <mxGeometry x="450" y="105" width="110" height="40" as="geometry" />
        </mxCell>
        <mxCell id="y_U1sLLxYdFH5VkJYSiX-86" value="" style="html=1;points=[[0,0,0,0,5],[0,1,0,0,-5],[1,0,0,0,5],[1,1,0,0,-5]];perimeter=orthogonalPerimeter;outlineConnect=0;targetShapes=umlLifeline;portConstraint=eastwest;newEdgeStyle={&quot;curved&quot;:0,&quot;rounded&quot;:0};" parent="y_U1sLLxYdFH5VkJYSiX-56" vertex="1">
          <mxGeometry x="340" y="100" width="10" height="240" as="geometry" />
        </mxCell>
        <mxCell id="y_U1sLLxYdFH5VkJYSiX-87" value="" style="line;strokeWidth=1;fillColor=none;align=left;verticalAlign=middle;spacingTop=-1;spacingLeft=3;spacingRight=3;rotatable=0;labelPosition=right;points=[];portConstraint=eastwest;strokeColor=inherit;dashed=1;dashPattern=8 8;direction=west;" parent="y_U1sLLxYdFH5VkJYSiX-56" vertex="1">
          <mxGeometry x="250" y="100" width="80" height="8" as="geometry" />
        </mxCell>
        <mxCell id="y_U1sLLxYdFH5VkJYSiX-88" value="create" style="text;align=center;fontStyle=1;verticalAlign=middle;spacingLeft=3;spacingRight=3;strokeColor=none;rotatable=0;points=[[0,0.5],[1,0.5]];portConstraint=eastwest;html=1;" parent="y_U1sLLxYdFH5VkJYSiX-56" vertex="1">
          <mxGeometry x="260" y="80" width="80" height="26" as="geometry" />
        </mxCell>
        <mxCell id="y_U1sLLxYdFH5VkJYSiX-72" value="&lt;u&gt;:budgetReviewCtrl&lt;/u&gt;" style="html=1;whiteSpace=wrap;" parent="y_U1sLLxYdFH5VkJYSiX-56" vertex="1">
          <mxGeometry x="281" y="10" width="129" height="40" as="geometry" />
        </mxCell>
        <mxCell id="y_U1sLLxYdFH5VkJYSiX-93" value="" style="line;strokeWidth=1;fillColor=none;align=left;verticalAlign=middle;spacingTop=-1;spacingLeft=3;spacingRight=3;rotatable=0;labelPosition=right;points=[];portConstraint=eastwest;strokeColor=inherit;dashed=1;dashPattern=8 8;direction=north;" parent="y_U1sLLxYdFH5VkJYSiX-56" vertex="1">
          <mxGeometry x="340" y="54" width="8" height="46" as="geometry" />
        </mxCell>
        <mxCell id="y_U1sLLxYdFH5VkJYSiX-96" value="" style="line;strokeWidth=1;fillColor=none;align=left;verticalAlign=middle;spacingTop=-1;spacingLeft=3;spacingRight=3;rotatable=0;labelPosition=right;points=[];portConstraint=eastwest;strokeColor=inherit;dashed=1;dashPattern=8 8;direction=west;" parent="y_U1sLLxYdFH5VkJYSiX-56" vertex="1">
          <mxGeometry x="348" y="121" width="100" height="8" as="geometry" />
        </mxCell>
        <mxCell id="y_U1sLLxYdFH5VkJYSiX-95" value="create" style="text;align=center;fontStyle=1;verticalAlign=middle;spacingLeft=3;spacingRight=3;strokeColor=none;rotatable=0;points=[[0,0.5],[1,0.5]];portConstraint=eastwest;html=1;" parent="y_U1sLLxYdFH5VkJYSiX-56" vertex="1">
          <mxGeometry x="368" y="91" width="80" height="26" as="geometry" />
        </mxCell>
        <mxCell id="y_U1sLLxYdFH5VkJYSiX-97" value="" style="line;strokeWidth=1;fillColor=none;align=left;verticalAlign=middle;spacingTop=-1;spacingLeft=3;spacingRight=3;rotatable=0;labelPosition=right;points=[];portConstraint=eastwest;strokeColor=inherit;dashed=1;dashPattern=8 8;direction=north;" parent="y_U1sLLxYdFH5VkJYSiX-56" vertex="1">
          <mxGeometry x="501" y="137" width="8" height="46" as="geometry" />
        </mxCell>
        <mxCell id="y_U1sLLxYdFH5VkJYSiX-98" value="" style="html=1;points=[[0,0,0,0,5],[0,1,0,0,-5],[1,0,0,0,5],[1,1,0,0,-5]];perimeter=orthogonalPerimeter;outlineConnect=0;targetShapes=umlLifeline;portConstraint=eastwest;newEdgeStyle={&quot;curved&quot;:0,&quot;rounded&quot;:0};" parent="y_U1sLLxYdFH5VkJYSiX-56" vertex="1">
          <mxGeometry x="499" y="183" width="10" height="235" as="geometry" />
        </mxCell>
        <mxCell id="y_U1sLLxYdFH5VkJYSiX-99" value="fillform()" style="strokeColor=inherit;fillColor=inherit;gradientColor=inherit;endArrow=open;html=1;edgeStyle=none;verticalAlign=bottom;labelBackgroundColor=none;endSize=12;rounded=0;" parent="y_U1sLLxYdFH5VkJYSiX-56" edge="1">
          <mxGeometry x="0.1818" y="10" relative="1" as="geometry">
            <mxPoint x="250" y="180" as="sourcePoint" />
            <mxPoint x="500" y="180" as="targetPoint" />
            <Array as="points">
              <mxPoint x="400" y="180" />
            </Array>
            <mxPoint as="offset" />
          </mxGeometry>
        </mxCell>
        <mxCell id="y_U1sLLxYdFH5VkJYSiX-100" value="submitform()" style="strokeColor=inherit;fillColor=inherit;gradientColor=inherit;endArrow=open;html=1;edgeStyle=none;verticalAlign=bottom;labelBackgroundColor=none;endSize=12;rounded=0;" parent="y_U1sLLxYdFH5VkJYSiX-56" source="y_U1sLLxYdFH5VkJYSiX-98" edge="1">
          <mxGeometry relative="1" as="geometry">
            <mxPoint x="560" y="220" as="sourcePoint" />
            <mxPoint x="340" y="220" as="targetPoint" />
          </mxGeometry>
        </mxCell>
        <mxCell id="y_U1sLLxYdFH5VkJYSiX-102" value="&lt;u&gt;:feedBacks&lt;/u&gt;" style="html=1;whiteSpace=wrap;" parent="y_U1sLLxYdFH5VkJYSiX-56" vertex="1">
          <mxGeometry x="586" y="235" width="110" height="40" as="geometry" />
        </mxCell>
        <mxCell id="y_U1sLLxYdFH5VkJYSiX-103" value="" style="strokeColor=inherit;fillColor=inherit;gradientColor=inherit;endArrow=none;html=1;edgeStyle=none;dashed=1;rounded=0;" parent="y_U1sLLxYdFH5VkJYSiX-56" target="y_U1sLLxYdFH5VkJYSiX-86" edge="1">
          <mxGeometry relative="1" as="geometry">
            <mxPoint x="380" y="260" as="targetPoint" />
            <mxPoint x="580" y="250" as="sourcePoint" />
            <Array as="points">
              <mxPoint x="470" y="250" />
            </Array>
          </mxGeometry>
        </mxCell>
        <mxCell id="y_U1sLLxYdFH5VkJYSiX-104" value="&lt;u&gt;:addmissionReviewCtrl&lt;/u&gt;" style="html=1;align=center;verticalAlign=middle;labelPosition=center;verticalLabelPosition=middle;labelBorderColor=none;" parent="y_U1sLLxYdFH5VkJYSiX-56" vertex="1">
          <mxGeometry x="690" y="100" width="160" height="66" as="geometry" />
        </mxCell>
        <mxCell id="y_U1sLLxYdFH5VkJYSiX-106" value="sendNotification()" style="strokeColor=inherit;fillColor=inherit;gradientColor=inherit;endArrow=open;html=1;edgeStyle=none;verticalAlign=bottom;labelBackgroundColor=none;endSize=13;rounded=0;startSize=6;" parent="y_U1sLLxYdFH5VkJYSiX-56" edge="1">
          <mxGeometry x="0.4044" y="10" relative="1" as="geometry">
            <mxPoint x="350" y="310" as="sourcePoint" />
            <mxPoint x="763" y="310" as="targetPoint" />
            <mxPoint as="offset" />
          </mxGeometry>
        </mxCell>
        <mxCell id="y_U1sLLxYdFH5VkJYSiX-108" value="" style="strokeColor=inherit;fillColor=inherit;gradientColor=inherit;endArrow=none;html=1;edgeStyle=none;dashed=1;rounded=0;" parent="y_U1sLLxYdFH5VkJYSiX-56" edge="1">
          <mxGeometry relative="1" as="geometry">
            <mxPoint x="764.5" y="300" as="targetPoint" />
            <mxPoint x="764.5" y="160" as="sourcePoint" />
          </mxGeometry>
        </mxCell>
        <mxCell id="y_U1sLLxYdFH5VkJYSiX-111" value="&lt;p style=&quot;margin:0px;margin-top:4px;margin-left:10px;text-align:left;&quot;&gt;&lt;b style=&quot;background-color: light-dark(#ffffff, var(--ge-dark-color, #121212));&quot;&gt;alt&lt;/b&gt;&lt;/p&gt;" style="html=1;shape=mxgraph.sysml.package;labelX=100.32;html=1;overflow=fill;strokeWidth=1;recursiveResize=0;whiteSpace=wrap;" parent="y_U1sLLxYdFH5VkJYSiX-56" vertex="1">
          <mxGeometry x="730" y="320" width="600" height="350" as="geometry" />
        </mxCell>
        <mxCell id="y_U1sLLxYdFH5VkJYSiX-119" value="" style="html=1;points=[[0,0,0,0,5],[0,1,0,0,-5],[1,0,0,0,5],[1,1,0,0,-5]];perimeter=orthogonalPerimeter;outlineConnect=0;targetShapes=umlLifeline;portConstraint=eastwest;newEdgeStyle={&quot;curved&quot;:0,&quot;rounded&quot;:0};" parent="y_U1sLLxYdFH5VkJYSiX-111" vertex="1">
          <mxGeometry x="30" y="-25" width="10" height="235" as="geometry" />
        </mxCell>
        <mxCell id="y_U1sLLxYdFH5VkJYSiX-120" value="" style="html=1;verticalAlign=bottom;endArrow=block;curved=0;rounded=0;" parent="y_U1sLLxYdFH5VkJYSiX-111" target="y_U1sLLxYdFH5VkJYSiX-121" edge="1">
          <mxGeometry width="80" relative="1" as="geometry">
            <mxPoint x="40" y="60" as="sourcePoint" />
            <mxPoint x="220" y="60" as="targetPoint" />
            <Array as="points">
              <mxPoint x="170" y="60" />
            </Array>
          </mxGeometry>
        </mxCell>
        <mxCell id="y_U1sLLxYdFH5VkJYSiX-121" value="" style="html=1;points=[[0,0,0,0,5],[0,1,0,0,-5],[1,0,0,0,5],[1,1,0,0,-5]];perimeter=orthogonalPerimeter;outlineConnect=0;targetShapes=umlLifeline;portConstraint=eastwest;newEdgeStyle={&quot;curved&quot;:0,&quot;rounded&quot;:0};" parent="y_U1sLLxYdFH5VkJYSiX-111" vertex="1">
          <mxGeometry x="240" y="40" width="10" height="280" as="geometry" />
        </mxCell>
        <mxCell id="y_U1sLLxYdFH5VkJYSiX-122" value="&lt;u&gt;:sceduleDetails&lt;/u&gt;" style="html=1;whiteSpace=wrap;" parent="y_U1sLLxYdFH5VkJYSiX-111" vertex="1">
          <mxGeometry x="450" y="276" width="110" height="40" as="geometry" />
        </mxCell>
        <mxCell id="y_U1sLLxYdFH5VkJYSiX-123" value="" style="html=1;points=[[0,0,0,0,5],[0,1,0,0,-5],[1,0,0,0,5],[1,1,0,0,-5]];perimeter=orthogonalPerimeter;outlineConnect=0;targetShapes=umlLifeline;portConstraint=eastwest;newEdgeStyle={&quot;curved&quot;:0,&quot;rounded&quot;:0};" parent="y_U1sLLxYdFH5VkJYSiX-111" vertex="1">
          <mxGeometry x="340" y="100" width="10" height="240" as="geometry" />
        </mxCell>
        <mxCell id="y_U1sLLxYdFH5VkJYSiX-124" value="" style="line;strokeWidth=1;fillColor=none;align=left;verticalAlign=middle;spacingTop=-1;spacingLeft=3;spacingRight=3;rotatable=0;labelPosition=right;points=[];portConstraint=eastwest;strokeColor=inherit;dashed=1;dashPattern=8 8;direction=west;" parent="y_U1sLLxYdFH5VkJYSiX-111" vertex="1">
          <mxGeometry x="250" y="100" width="80" height="8" as="geometry" />
        </mxCell>
        <mxCell id="y_U1sLLxYdFH5VkJYSiX-125" value="create" style="text;align=center;fontStyle=1;verticalAlign=middle;spacingLeft=3;spacingRight=3;strokeColor=none;rotatable=0;points=[[0,0.5],[1,0.5]];portConstraint=eastwest;html=1;" parent="y_U1sLLxYdFH5VkJYSiX-111" vertex="1">
          <mxGeometry x="260" y="80" width="80" height="26" as="geometry" />
        </mxCell>
        <mxCell id="y_U1sLLxYdFH5VkJYSiX-127" value="" style="line;strokeWidth=1;fillColor=none;align=left;verticalAlign=middle;spacingTop=-1;spacingLeft=3;spacingRight=3;rotatable=0;labelPosition=right;points=[];portConstraint=eastwest;strokeColor=inherit;dashed=1;dashPattern=8 8;direction=north;" parent="y_U1sLLxYdFH5VkJYSiX-111" vertex="1">
          <mxGeometry x="340" y="54" width="8" height="46" as="geometry" />
        </mxCell>
        <mxCell id="y_U1sLLxYdFH5VkJYSiX-146" value="[verify successfull]" style="text;align=center;fontStyle=1;verticalAlign=middle;spacingLeft=3;spacingRight=3;strokeColor=none;rotatable=0;points=[[0,0.5],[1,0.5]];portConstraint=eastwest;html=1;" parent="y_U1sLLxYdFH5VkJYSiX-111" vertex="1">
          <mxGeometry x="70" y="28" width="80" height="26" as="geometry" />
        </mxCell>
        <mxCell id="y_U1sLLxYdFH5VkJYSiX-148" value="&lt;u&gt;:scheduleForm&lt;/u&gt;" style="html=1;whiteSpace=wrap;" parent="y_U1sLLxYdFH5VkJYSiX-111" vertex="1">
          <mxGeometry x="290" y="21" width="129" height="40" as="geometry" />
        </mxCell>
        <mxCell id="y_U1sLLxYdFH5VkJYSiX-155" value="create" style="text;align=center;fontStyle=1;verticalAlign=middle;spacingLeft=3;spacingRight=3;strokeColor=none;rotatable=0;points=[[0,0.5],[1,0.5]];portConstraint=eastwest;html=1;" parent="y_U1sLLxYdFH5VkJYSiX-111" vertex="1">
          <mxGeometry x="360" y="250" width="80" height="26" as="geometry" />
        </mxCell>
        <mxCell id="pJPEQ8hxS9hMxsWCmxNP-1" value="[else]" style="text;align=center;fontStyle=1;verticalAlign=middle;spacingLeft=3;spacingRight=3;strokeColor=none;rotatable=0;points=[[0,0.5],[1,0.5]];portConstraint=eastwest;html=1;" parent="y_U1sLLxYdFH5VkJYSiX-111" vertex="1">
          <mxGeometry x="20" y="140" width="80" height="26" as="geometry" />
        </mxCell>
        <mxCell id="pJPEQ8hxS9hMxsWCmxNP-2" value="cancelRequest()" style="html=1;align=left;spacingLeft=2;endArrow=block;rounded=0;edgeStyle=orthogonalEdgeStyle;curved=0;rounded=0;" parent="y_U1sLLxYdFH5VkJYSiX-111" edge="1">
          <mxGeometry x="0.0588" y="15" relative="1" as="geometry">
            <mxPoint x="40" y="165" as="sourcePoint" />
            <Array as="points">
              <mxPoint x="70" y="195" />
            </Array>
            <mxPoint as="offset" />
            <mxPoint x="45" y="195" as="targetPoint" />
          </mxGeometry>
        </mxCell>
        <mxCell id="y_U1sLLxYdFH5VkJYSiX-147" value="&lt;u&gt;:scheduleCtrl&lt;/u&gt;" style="html=1;whiteSpace=wrap;" parent="y_U1sLLxYdFH5VkJYSiX-56" vertex="1">
          <mxGeometry x="910" y="220" width="129" height="40" as="geometry" />
        </mxCell>
        <mxCell id="y_U1sLLxYdFH5VkJYSiX-159" value="" style="strokeColor=inherit;fillColor=inherit;gradientColor=inherit;endArrow=none;html=1;edgeStyle=none;dashed=1;rounded=0;" parent="y_U1sLLxYdFH5VkJYSiX-56" edge="1">
          <mxGeometry relative="1" as="geometry">
            <mxPoint x="974" y="360" as="targetPoint" />
            <mxPoint x="973.6700000000001" y="250" as="sourcePoint" />
          </mxGeometry>
        </mxCell>
        <mxCell id="y_U1sLLxYdFH5VkJYSiX-160" value="notify()" style="align=right;html=1;verticalAlign=bottom;labelBackgroundColor=none;" parent="y_U1sLLxYdFH5VkJYSiX-56" connectable="0" vertex="1">
          <mxGeometry x="180" y="54" as="geometry" />
        </mxCell>
        <mxCell id="y_U1sLLxYdFH5VkJYSiX-161" value="[selected]" style="align=right;html=1;verticalAlign=bottom;labelBackgroundColor=none;" parent="y_U1sLLxYdFH5VkJYSiX-56" connectable="0" vertex="1">
          <mxGeometry x="100" y="50" as="geometry" />
        </mxCell>
        <mxCell id="y_U1sLLxYdFH5VkJYSiX-162" value="[else]" style="align=right;html=1;verticalAlign=bottom;labelBackgroundColor=none;" parent="y_U1sLLxYdFH5VkJYSiX-56" connectable="0" vertex="1">
          <mxGeometry x="80" y="105" height="40" as="geometry" />
        </mxCell>
        <mxCell id="y_U1sLLxYdFH5VkJYSiX-168" value="" style="html=1;points=[[0,0,0,0,5],[0,1,0,0,-5],[1,0,0,0,5],[1,1,0,0,-5]];perimeter=orthogonalPerimeter;outlineConnect=0;targetShapes=umlLifeline;portConstraint=eastwest;newEdgeStyle={&quot;curved&quot;:0,&quot;rounded&quot;:0};" parent="y_U1sLLxYdFH5VkJYSiX-56" vertex="1">
          <mxGeometry x="30" y="165" width="10" height="40" as="geometry" />
        </mxCell>
        <mxCell id="y_U1sLLxYdFH5VkJYSiX-169" value="cancelRequest()" style="html=1;align=left;spacingLeft=2;endArrow=block;rounded=0;edgeStyle=orthogonalEdgeStyle;curved=0;rounded=0;" parent="y_U1sLLxYdFH5VkJYSiX-56" target="y_U1sLLxYdFH5VkJYSiX-168" edge="1">
          <mxGeometry x="0.0588" y="15" relative="1" as="geometry">
            <mxPoint x="35" y="145" as="sourcePoint" />
            <Array as="points">
              <mxPoint x="65" y="175" />
            </Array>
            <mxPoint as="offset" />
          </mxGeometry>
        </mxCell>
        <mxCell id="y_U1sLLxYdFH5VkJYSiX-73" value="" style="line;strokeWidth=1;fillColor=none;align=left;verticalAlign=middle;spacingTop=-1;spacingLeft=3;spacingRight=3;rotatable=0;labelPosition=right;points=[];portConstraint=eastwest;strokeColor=inherit;dashed=1;dashPattern=8 8;direction=south;" parent="1" vertex="1">
          <mxGeometry x="791" y="190" width="8" height="280" as="geometry" />
        </mxCell>
        <mxCell id="y_U1sLLxYdFH5VkJYSiX-90" value="FM" style="shape=umlActor;verticalLabelPosition=bottom;verticalAlign=top;html=1;outlineConnect=0;" parent="1" vertex="1">
          <mxGeometry x="780" y="100" width="30" height="60" as="geometry" />
        </mxCell>
        <mxCell id="y_U1sLLxYdFH5VkJYSiX-109" value="FM" style="shape=umlActor;verticalLabelPosition=bottom;verticalAlign=top;html=1;outlineConnect=0;" parent="1" vertex="1">
          <mxGeometry x="2030" y="160" width="30" height="60" as="geometry" />
        </mxCell>
        <mxCell id="y_U1sLLxYdFH5VkJYSiX-110" value="" style="line;strokeWidth=1;fillColor=none;align=left;verticalAlign=middle;spacingTop=-1;spacingLeft=3;spacingRight=3;rotatable=0;labelPosition=right;points=[];portConstraint=eastwest;strokeColor=inherit;dashed=1;dashPattern=8 8;direction=south;" parent="1" vertex="1">
          <mxGeometry x="2041" y="245" width="8" height="330" as="geometry" />
        </mxCell>
        <mxCell id="y_U1sLLxYdFH5VkJYSiX-150" value="filform()" style="strokeColor=inherit;fillColor=inherit;gradientColor=inherit;endArrow=open;html=1;edgeStyle=none;verticalAlign=bottom;labelBackgroundColor=none;endSize=12;rounded=0;" parent="1" edge="1">
          <mxGeometry x="0.7215" y="20" relative="1" as="geometry">
            <mxPoint x="40" y="910" as="sourcePoint" />
            <mxPoint x="1620" y="910" as="targetPoint" />
            <mxPoint as="offset" />
          </mxGeometry>
        </mxCell>
        <mxCell id="y_U1sLLxYdFH5VkJYSiX-151" value="submit()" style="strokeColor=inherit;fillColor=inherit;gradientColor=inherit;endArrow=open;html=1;edgeStyle=none;verticalAlign=bottom;labelBackgroundColor=none;endSize=12;rounded=0;" parent="1" edge="1">
          <mxGeometry x="0.7531" y="10" relative="1" as="geometry">
            <mxPoint x="40" y="990" as="sourcePoint" />
            <mxPoint x="1620" y="990" as="targetPoint" />
            <mxPoint as="offset" />
          </mxGeometry>
        </mxCell>
        <mxCell id="y_U1sLLxYdFH5VkJYSiX-154" value="" style="line;strokeWidth=1;fillColor=none;align=left;verticalAlign=middle;spacingTop=-1;spacingLeft=3;spacingRight=3;rotatable=0;labelPosition=right;points=[];portConstraint=eastwest;strokeColor=inherit;dashed=1;dashPattern=8 8;direction=west;" parent="1" vertex="1">
          <mxGeometry x="1540" y="1060" width="190" height="8" as="geometry" />
        </mxCell>
        <mxCell id="y_U1sLLxYdFH5VkJYSiX-156" value="" style="html=1;points=[[0,0,0,0,5],[0,1,0,0,-5],[1,0,0,0,5],[1,1,0,0,-5]];perimeter=orthogonalPerimeter;outlineConnect=0;targetShapes=umlLifeline;portConstraint=eastwest;newEdgeStyle={&quot;curved&quot;:0,&quot;rounded&quot;:0};" parent="1" vertex="1">
          <mxGeometry x="2041" y="570" width="10" height="370" as="geometry" />
        </mxCell>
        <mxCell id="y_U1sLLxYdFH5VkJYSiX-158" value="" style="html=1;verticalAlign=bottom;endArrow=block;curved=0;rounded=0;" parent="1" target="y_U1sLLxYdFH5VkJYSiX-119" edge="1" source="y_U1sLLxYdFH5VkJYSiX-156">
          <mxGeometry width="80" relative="1" as="geometry">
            <mxPoint x="2190" y="783" as="sourcePoint" />
            <mxPoint x="1960" y="783.33" as="targetPoint" />
            <Array as="points">
              <mxPoint x="2020" y="790" />
            </Array>
          </mxGeometry>
        </mxCell>
      </root>
    </mxGraphModel>
  </diagram>
</mxfile>
